<svg width="256" height="42" viewBox="0 0 256 42" fill="none" xmlns="http://www.w3.org/2000/svg">
<path opacity="0.5" d="M40.0652 2.25671L30.2601 36.9917C30.2102 37.1494 30.0108 37.1967 29.8945 37.0863L23.3301 30.8583L28.2492 13.4514C28.2991 13.2937 28.1495 13.1518 27.9833 13.1991L9.63617 17.8662L3.10498 11.6697C2.98865 11.5593 3.03851 11.3701 3.20469 11.3228L39.7993 2.00444C39.9655 1.97291 40.115 2.11481 40.0652 2.25671Z" fill="#00B37E"/>
<path opacity="0.5" d="M23.3297 30.858L20.8037 39.8452C20.7538 40.0029 20.5544 40.0502 20.4381 39.9398L0.0634003 20.6251C-0.0529313 20.5147 -0.00307518 20.3255 0.163113 20.2782L9.63583 17.8658L23.3297 30.858Z" fill="#00B37E"/>
<path d="M28.2484 13.4511L23.3292 30.858L9.63533 17.8659L27.9825 13.1988C28.1487 13.1515 28.2982 13.2934 28.2484 13.4511Z" fill="#00B37E"/>
<path d="M64.7733 23.0162H60.1384V20.0929H64.7733C65.4895 20.0929 66.0725 19.9763 66.5223 19.7431C66.972 19.5016 67.301 19.1684 67.5092 18.7437C67.7174 18.3189 67.8215 17.84 67.8215 17.307C67.8215 16.7656 67.7174 16.2618 67.5092 15.7954C67.301 15.329 66.972 14.9542 66.5223 14.671C66.0725 14.3878 65.4895 14.2462 64.7733 14.2462H61.4377V29.5H57.6898V11.3104H64.7733C66.1974 11.3104 67.4176 11.5686 68.4337 12.085C69.4581 12.593 70.241 13.2968 70.7823 14.1963C71.3237 15.0958 71.5943 16.1243 71.5943 17.282C71.5943 18.4563 71.3237 19.4724 70.7823 20.3303C70.241 21.1881 69.4581 21.8502 68.4337 22.3166C67.4176 22.783 66.1974 23.0162 64.7733 23.0162ZM80.002 29.7499C78.9526 29.7499 78.0115 29.5833 77.1786 29.2501C76.3458 28.9087 75.6379 28.4381 75.0549 27.8385C74.4802 27.2388 74.0388 26.5434 73.7306 25.7521C73.4225 24.9526 73.2684 24.1031 73.2684 23.2036V22.7039C73.2684 21.6795 73.4141 20.7425 73.7056 19.893C73.9971 19.0435 74.4136 18.3064 74.9549 17.6818C75.5046 17.0571 76.1709 16.5782 76.9538 16.2451C77.7367 15.9036 78.6195 15.7329 79.6022 15.7329C80.56 15.7329 81.4095 15.8911 82.1508 16.2076C82.892 16.5241 83.5125 16.9739 84.0122 17.5569C84.5203 18.1398 84.9034 18.8394 85.1616 19.6556C85.4197 20.4635 85.5488 21.363 85.5488 22.3541V23.8532H74.805V21.4546H82.0134V21.1798C82.0134 20.6801 81.9218 20.2345 81.7385 19.843C81.5636 19.4433 81.2971 19.1268 80.939 18.8936C80.5809 18.6604 80.1228 18.5438 79.5648 18.5438C79.09 18.5438 78.6819 18.6479 78.3405 18.8561C77.999 19.0643 77.72 19.3558 77.5035 19.7306C77.2952 20.1054 77.137 20.5468 77.0287 21.0548C76.9288 21.5546 76.8788 22.1042 76.8788 22.7039V23.2036C76.8788 23.745 76.9538 24.2447 77.1037 24.7028C77.2619 25.1608 77.4826 25.5564 77.7658 25.8896C78.0573 26.2227 78.4071 26.4809 78.8152 26.6641C79.2316 26.8474 79.7022 26.939 80.2269 26.939C80.8765 26.939 81.4803 26.814 82.0384 26.5642C82.6047 26.306 83.0919 25.9187 83.5 25.4024L85.249 27.3013C84.9658 27.7094 84.5786 28.1008 84.0872 28.4756C83.6041 28.8504 83.0211 29.1585 82.3382 29.4001C81.6552 29.6333 80.8765 29.7499 80.002 29.7499ZM91.1956 18.9311V29.5H87.5977V15.9828H90.9832L91.1956 18.9311ZM95.2683 15.8953L95.2058 19.2309C95.0309 19.2059 94.8185 19.1851 94.5687 19.1684C94.3271 19.1434 94.1064 19.1309 93.9065 19.1309C93.3985 19.1309 92.9571 19.1976 92.5823 19.3308C92.2158 19.4558 91.9077 19.6432 91.6578 19.893C91.4163 20.1429 91.2331 20.4469 91.1082 20.805C90.9916 21.1631 90.9249 21.5712 90.9083 22.0293L90.1837 21.8044C90.1837 20.9299 90.2711 20.1262 90.446 19.3933C90.6209 18.6521 90.875 18.0066 91.2081 17.4569C91.5496 16.9072 91.966 16.4825 92.4574 16.1826C92.9488 15.8828 93.5109 15.7329 94.1439 15.7329C94.3438 15.7329 94.5478 15.7496 94.7561 15.7829C94.9643 15.8079 95.135 15.8453 95.2683 15.8953ZM104.276 25.7646C104.276 25.5065 104.201 25.2733 104.051 25.065C103.901 24.8568 103.622 24.6653 103.214 24.4904C102.814 24.3071 102.235 24.1406 101.477 23.9907C100.794 23.8407 100.157 23.6534 99.5658 23.4285C98.9828 23.1953 98.4748 22.9163 98.0417 22.5915C97.6169 22.2666 97.2838 21.8835 97.0422 21.4421C96.8007 20.9924 96.68 20.4802 96.68 19.9055C96.68 19.3392 96.8007 18.8061 97.0422 18.3064C97.2921 17.8067 97.6461 17.3653 98.1041 16.9822C98.5705 16.5907 99.1369 16.2867 99.8032 16.0702C100.478 15.8453 101.236 15.7329 102.077 15.7329C103.251 15.7329 104.259 15.9203 105.1 16.2951C105.95 16.6699 106.599 17.1862 107.049 17.8442C107.507 18.4938 107.736 19.2351 107.736 20.0679H104.138C104.138 19.7181 104.063 19.4058 103.913 19.1309C103.772 18.8478 103.547 18.6271 103.239 18.4688C102.939 18.3023 102.547 18.219 102.064 18.219C101.665 18.219 101.319 18.2898 101.027 18.4313C100.736 18.5646 100.511 18.7478 100.353 18.981C100.203 19.2059 100.128 19.4558 100.128 19.7306C100.128 19.9388 100.17 20.1262 100.253 20.2928C100.345 20.451 100.49 20.5968 100.69 20.73C100.89 20.8633 101.148 20.9882 101.465 21.1048C101.79 21.2131 102.189 21.313 102.664 21.4046C103.638 21.6045 104.509 21.8669 105.275 22.1917C106.041 22.5082 106.649 22.9413 107.099 23.4909C107.549 24.0323 107.774 24.7444 107.774 25.6272C107.774 26.2269 107.64 26.7766 107.374 27.2763C107.107 27.776 106.724 28.2132 106.224 28.588C105.725 28.9545 105.125 29.2418 104.426 29.45C103.734 29.6499 102.956 29.7499 102.089 29.7499C100.832 29.7499 99.7657 29.525 98.8912 29.0752C98.025 28.6255 97.3671 28.055 96.9173 27.3637C96.4759 26.6641 96.2552 25.9479 96.2552 25.215H99.6657C99.6824 25.7063 99.8073 26.1019 100.041 26.4018C100.282 26.7016 100.586 26.9181 100.953 27.0514C101.327 27.1847 101.731 27.2513 102.164 27.2513C102.631 27.2513 103.018 27.1888 103.326 27.0639C103.634 26.9306 103.867 26.7557 104.026 26.5392C104.192 26.3143 104.276 26.0561 104.276 25.7646ZM109.535 22.8788V22.6164C109.535 21.6253 109.677 20.7134 109.96 19.8805C110.243 19.0393 110.655 18.3106 111.197 17.6943C111.738 17.078 112.404 16.5991 113.195 16.2576C113.987 15.9078 114.895 15.7329 115.919 15.7329C116.943 15.7329 117.855 15.9078 118.655 16.2576C119.454 16.5991 120.125 17.078 120.666 17.6943C121.216 18.3106 121.632 19.0393 121.915 19.8805C122.199 20.7134 122.34 21.6253 122.34 22.6164V22.8788C122.34 23.8616 122.199 24.7735 121.915 25.6147C121.632 26.4476 121.216 27.1763 120.666 27.801C120.125 28.4173 119.459 28.8962 118.667 29.2377C117.876 29.5791 116.968 29.7499 115.944 29.7499C114.919 29.7499 114.008 29.5791 113.208 29.2377C112.417 28.8962 111.746 28.4173 111.197 27.801C110.655 27.1763 110.243 26.4476 109.96 25.6147C109.677 24.7735 109.535 23.8616 109.535 22.8788ZM113.133 22.6164V22.8788C113.133 23.4451 113.183 23.974 113.283 24.4654C113.383 24.9568 113.541 25.3899 113.758 25.7646C113.983 26.1311 114.274 26.4184 114.632 26.6266C114.99 26.8349 115.428 26.939 115.944 26.939C116.444 26.939 116.873 26.8349 117.231 26.6266C117.589 26.4184 117.876 26.1311 118.093 25.7646C118.309 25.3899 118.467 24.9568 118.567 24.4654C118.676 23.974 118.73 23.4451 118.73 22.8788V22.6164C118.73 22.0668 118.676 21.5504 118.567 21.0673C118.467 20.576 118.305 20.1429 118.08 19.7681C117.864 19.385 117.576 19.0851 117.218 18.8686C116.86 18.6521 116.427 18.5438 115.919 18.5438C115.411 18.5438 114.978 18.6521 114.62 18.8686C114.27 19.0851 113.983 19.385 113.758 19.7681C113.541 20.1429 113.383 20.576 113.283 21.0673C113.183 21.5504 113.133 22.0668 113.133 22.6164ZM128.074 18.8686V29.5H124.477V15.9828H127.85L128.074 18.8686ZM127.55 22.2666H126.575C126.575 21.2672 126.704 20.3677 126.963 19.5682C127.221 18.7603 127.583 18.0732 128.049 17.5069C128.516 16.9322 129.07 16.495 129.711 16.1951C130.361 15.887 131.085 15.7329 131.885 15.7329C132.518 15.7329 133.097 15.8245 133.621 16.0077C134.146 16.191 134.596 16.4825 134.97 16.8822C135.354 17.282 135.645 17.8109 135.845 18.4688C136.053 19.1268 136.157 19.9305 136.157 20.8799V29.5H132.534V20.8675C132.534 20.2678 132.451 19.8014 132.285 19.4683C132.118 19.1351 131.872 18.9019 131.547 18.7687C131.231 18.6271 130.84 18.5563 130.373 18.5563C129.89 18.5563 129.469 18.6521 129.111 18.8436C128.762 19.0352 128.47 19.3017 128.237 19.6432C128.012 19.9763 127.841 20.3677 127.725 20.8175C127.608 21.2672 127.55 21.7503 127.55 22.2666ZM146.189 26.4517V20.4302C146.189 19.9971 146.118 19.6265 145.977 19.3183C145.835 19.0019 145.614 18.7562 145.315 18.5813C145.023 18.4064 144.644 18.3189 144.178 18.3189C143.778 18.3189 143.432 18.3897 143.141 18.5313C142.849 18.6645 142.624 18.8603 142.466 19.1185C142.308 19.3683 142.229 19.664 142.229 20.0054H138.631C138.631 19.4308 138.764 18.8853 139.031 18.3689C139.297 17.8525 139.684 17.3986 140.193 17.0072C140.701 16.6074 141.304 16.2951 142.004 16.0702C142.712 15.8453 143.503 15.7329 144.378 15.7329C145.427 15.7329 146.36 15.9078 147.176 16.2576C147.992 16.6074 148.633 17.1321 149.1 17.8317C149.575 18.5313 149.812 19.4058 149.812 20.4552V26.2394C149.812 26.9806 149.858 27.5886 149.949 28.0633C150.041 28.5297 150.174 28.9378 150.349 29.2876V29.5H146.714C146.539 29.1335 146.406 28.6755 146.314 28.1258C146.231 27.5678 146.189 27.0098 146.189 26.4517ZM146.664 21.2672L146.689 23.3036H144.677C144.203 23.3036 143.79 23.3577 143.441 23.466C143.091 23.5742 142.804 23.7283 142.579 23.9282C142.354 24.1198 142.187 24.3446 142.079 24.6028C141.979 24.861 141.929 25.1442 141.929 25.4523C141.929 25.7605 142 26.0395 142.141 26.2893C142.283 26.5309 142.487 26.7224 142.754 26.864C143.02 26.9973 143.332 27.0639 143.69 27.0639C144.232 27.0639 144.702 26.9556 145.102 26.7391C145.502 26.5225 145.81 26.256 146.027 25.9395C146.252 25.6231 146.368 25.3232 146.376 25.0401L147.326 26.5642C147.193 26.9057 147.009 27.2596 146.776 27.6261C146.551 27.9925 146.264 28.3382 145.914 28.663C145.564 28.9795 145.144 29.2418 144.652 29.45C144.161 29.6499 143.578 29.7499 142.903 29.7499C142.046 29.7499 141.267 29.5791 140.567 29.2377C139.876 28.8879 139.326 28.409 138.918 27.801C138.518 27.1847 138.319 26.4851 138.319 25.7022C138.319 24.9943 138.452 24.3654 138.718 23.8158C138.985 23.2661 139.376 22.8038 139.893 22.4291C140.417 22.0459 141.071 21.7586 141.854 21.5671C142.637 21.3672 143.545 21.2672 144.577 21.2672H146.664ZM156.383 10.311V29.5H152.773V10.311H156.383ZM169.701 11.3104V29.5H165.953V11.3104H169.701ZM176.946 19.081V22.0043H168.676V19.081H176.946ZM177.821 11.3104V14.2462H168.676V11.3104H177.821ZM183.568 15.9828V29.5H179.957V15.9828H183.568ZM179.732 12.4598C179.732 11.9351 179.916 11.502 180.282 11.1605C180.648 10.819 181.14 10.6483 181.756 10.6483C182.364 10.6483 182.851 10.819 183.218 11.1605C183.593 11.502 183.78 11.9351 183.78 12.4598C183.78 12.9845 183.593 13.4176 183.218 13.759C182.851 14.1005 182.364 14.2712 181.756 14.2712C181.14 14.2712 180.648 14.1005 180.282 13.759C179.916 13.4176 179.732 12.9845 179.732 12.4598ZM190.064 18.8686V29.5H186.466V15.9828H189.839L190.064 18.8686ZM189.539 22.2666H188.565C188.565 21.2672 188.694 20.3677 188.952 19.5682C189.21 18.7603 189.573 18.0732 190.039 17.5069C190.505 16.9322 191.059 16.495 191.7 16.1951C192.35 15.887 193.075 15.7329 193.874 15.7329C194.507 15.7329 195.086 15.8245 195.611 16.0077C196.135 16.191 196.585 16.4825 196.96 16.8822C197.343 17.282 197.635 17.8109 197.834 18.4688C198.043 19.1268 198.147 19.9305 198.147 20.8799V29.5H194.524V20.8675C194.524 20.2678 194.441 19.8014 194.274 19.4683C194.107 19.1351 193.862 18.9019 193.537 18.7687C193.22 18.6271 192.829 18.5563 192.363 18.5563C191.88 18.5563 191.459 18.6521 191.101 18.8436C190.751 19.0352 190.459 19.3017 190.226 19.6432C190.001 19.9763 189.831 20.3677 189.714 20.8175C189.597 21.2672 189.539 21.7503 189.539 22.2666ZM208.179 26.4517V20.4302C208.179 19.9971 208.108 19.6265 207.966 19.3183C207.825 19.0019 207.604 18.7562 207.304 18.5813C207.013 18.4064 206.634 18.3189 206.167 18.3189C205.767 18.3189 205.422 18.3897 205.13 18.5313C204.839 18.6645 204.614 18.8603 204.456 19.1185C204.297 19.3683 204.218 19.664 204.218 20.0054H200.62C200.62 19.4308 200.754 18.8853 201.02 18.3689C201.287 17.8525 201.674 17.3986 202.182 17.0072C202.69 16.6074 203.294 16.2951 203.993 16.0702C204.701 15.8453 205.493 15.7329 206.367 15.7329C207.416 15.7329 208.349 15.9078 209.165 16.2576C209.982 16.6074 210.623 17.1321 211.089 17.8317C211.564 18.5313 211.801 19.4058 211.801 20.4552V26.2394C211.801 26.9806 211.847 27.5886 211.939 28.0633C212.03 28.5297 212.164 28.9378 212.339 29.2876V29.5H208.703C208.528 29.1335 208.395 28.6755 208.303 28.1258C208.22 27.5678 208.179 27.0098 208.179 26.4517ZM208.653 21.2672L208.678 23.3036H206.667C206.192 23.3036 205.78 23.3577 205.43 23.466C205.08 23.5742 204.793 23.7283 204.568 23.9282C204.343 24.1198 204.177 24.3446 204.068 24.6028C203.968 24.861 203.918 25.1442 203.918 25.4523C203.918 25.7605 203.989 26.0395 204.131 26.2893C204.272 26.5309 204.476 26.7224 204.743 26.864C205.009 26.9973 205.322 27.0639 205.68 27.0639C206.221 27.0639 206.692 26.9556 207.092 26.7391C207.491 26.5225 207.8 26.256 208.016 25.9395C208.241 25.6231 208.358 25.3232 208.366 25.0401L209.315 26.5642C209.182 26.9057 208.999 27.2596 208.766 27.6261C208.541 27.9925 208.253 28.3382 207.904 28.663C207.554 28.9795 207.133 29.2418 206.642 29.45C206.15 29.6499 205.568 29.7499 204.893 29.7499C204.035 29.7499 203.256 29.5791 202.557 29.2377C201.865 28.8879 201.316 28.409 200.908 27.801C200.508 27.1847 200.308 26.4851 200.308 25.7022C200.308 24.9943 200.441 24.3654 200.708 23.8158C200.974 23.2661 201.366 22.8038 201.882 22.4291C202.407 22.0459 203.061 21.7586 203.843 21.5671C204.626 21.3672 205.534 21.2672 206.567 21.2672H208.653ZM218.098 18.8686V29.5H214.5V15.9828H217.873L218.098 18.8686ZM217.573 22.2666H216.599C216.599 21.2672 216.728 20.3677 216.986 19.5682C217.244 18.7603 217.606 18.0732 218.073 17.5069C218.539 16.9322 219.093 16.495 219.734 16.1951C220.384 15.887 221.109 15.7329 221.908 15.7329C222.541 15.7329 223.12 15.8245 223.645 16.0077C224.169 16.191 224.619 16.4825 224.994 16.8822C225.377 17.282 225.668 17.8109 225.868 18.4688C226.077 19.1268 226.181 19.9305 226.181 20.8799V29.5H222.558V20.8675C222.558 20.2678 222.474 19.8014 222.308 19.4683C222.141 19.1351 221.896 18.9019 221.571 18.7687C221.254 18.6271 220.863 18.5563 220.397 18.5563C219.913 18.5563 219.493 18.6521 219.135 18.8436C218.785 19.0352 218.493 19.3017 218.26 19.6432C218.035 19.9763 217.865 20.3677 217.748 20.8175C217.631 21.2672 217.573 21.7503 217.573 22.2666ZM234.501 26.939C234.942 26.939 235.334 26.8557 235.675 26.6891C236.017 26.5142 236.283 26.2727 236.475 25.9645C236.675 25.648 236.779 25.2774 236.787 24.8527H240.173C240.164 25.8021 239.91 26.6475 239.411 27.3887C238.911 28.1216 238.24 28.7005 237.399 29.1252C236.558 29.5416 235.617 29.7499 234.576 29.7499C233.526 29.7499 232.61 29.575 231.827 29.2252C231.053 28.8754 230.407 28.3923 229.891 27.776C229.375 27.1513 228.987 26.4268 228.729 25.6022C228.471 24.7694 228.342 23.8782 228.342 22.9288V22.5665C228.342 21.6087 228.471 20.7175 228.729 19.893C228.987 19.0602 229.375 18.3356 229.891 17.7193C230.407 17.0946 231.053 16.6074 231.827 16.2576C232.602 15.9078 233.51 15.7329 234.551 15.7329C235.659 15.7329 236.629 15.9453 237.462 16.37C238.303 16.7948 238.961 17.4028 239.436 18.194C239.919 18.9769 240.164 19.9055 240.173 20.9799H236.787C236.779 20.5301 236.683 20.122 236.5 19.7556C236.325 19.3891 236.067 19.0976 235.725 18.8811C235.392 18.6562 234.98 18.5438 234.488 18.5438C233.964 18.5438 233.535 18.6562 233.202 18.8811C232.869 19.0976 232.61 19.3975 232.427 19.7806C232.244 20.1554 232.115 20.5843 232.04 21.0673C231.973 21.5421 231.94 22.0418 231.94 22.5665V22.9288C231.94 23.4535 231.973 23.9573 232.04 24.4404C232.106 24.9235 232.231 25.3524 232.415 25.7272C232.606 26.1019 232.869 26.3976 233.202 26.6142C233.535 26.8307 233.968 26.939 234.501 26.939ZM248.48 29.7499C247.431 29.7499 246.49 29.5833 245.657 29.2501C244.824 28.9087 244.116 28.4381 243.533 27.8385C242.959 27.2388 242.517 26.5434 242.209 25.7521C241.901 24.9526 241.747 24.1031 241.747 23.2036V22.7039C241.747 21.6795 241.892 20.7425 242.184 19.893C242.475 19.0435 242.892 18.3064 243.433 17.6818C243.983 17.0571 244.649 16.5782 245.432 16.2451C246.215 15.9036 247.098 15.7329 248.081 15.7329C249.038 15.7329 249.888 15.8911 250.629 16.2076C251.37 16.5241 251.991 16.9739 252.491 17.5569C252.999 18.1398 253.382 18.8394 253.64 19.6556C253.898 20.4635 254.027 21.363 254.027 22.3541V23.8532H243.283V21.4546H250.492V21.1798C250.492 20.6801 250.4 20.2345 250.217 19.843C250.042 19.4433 249.775 19.1268 249.417 18.8936C249.059 18.6604 248.601 18.5438 248.043 18.5438C247.568 18.5438 247.16 18.6479 246.819 18.8561C246.477 19.0643 246.198 19.3558 245.982 19.7306C245.774 20.1054 245.615 20.5468 245.507 21.0548C245.407 21.5546 245.357 22.1042 245.357 22.7039V23.2036C245.357 23.745 245.432 24.2447 245.582 24.7028C245.74 25.1608 245.961 25.5564 246.244 25.8896C246.536 26.2227 246.885 26.4809 247.294 26.6641C247.71 26.8474 248.181 26.939 248.705 26.939C249.355 26.939 249.959 26.814 250.517 26.5642C251.083 26.306 251.57 25.9187 251.978 25.4024L253.727 27.3013C253.444 27.7094 253.057 28.1008 252.566 28.4756C252.082 28.8504 251.499 29.1585 250.817 29.4001C250.134 29.6333 249.355 29.7499 248.48 29.7499Z" fill="#E1E1E6"/>
</svg>
